{
	"asset":
	{
		"version": "2.0",
		"generator": "Unreal Engine 5.5.4"
	},
	"scene": 0,
	"accessors": [
		{
			"bufferView": 0,
			"count": 11904,
			"type": "SCALAR",
			"componentType": 5123
		},
		{
			"bufferView": 1,
			"count": 2333,
			"type": "VEC3",
			"componentType": 5126,
			"min": [ -1.5999999, -1.5999999, -1.5999999 ],
			"max": [ 1.5999999, 1.5999999, 1.5999999 ]
		},
		{
			"bufferView": 2,
			"count": 2333,
			"type": "VEC3",
			"componentType": 5126
		},
		{
			"bufferView": 3,
			"count": 2333,
			"type": "VEC4",
			"componentType": 5126
		},
		{
			"bufferView": 4,
			"count": 2333,
			"type": "VEC2",
			"componentType": 5126
		},
		{
			"bufferView": 5,
			"count": 2333,
			"type": "VEC2",
			"componentType": 5126
		}
	],
	"buffers": [
		{
			"uri": "Sci-fi_Rocket_Top_Inst.bin",
			"byteLength": 154456
		}
	],
	"bufferViews": [
		{
			"buffer": 0,
			"byteLength": 23808,
			"target": 34963
		},
		{
			"buffer": 0,
			"byteLength": 27996,
			"byteOffset": 23808,
			"target": 34962
		},
		{
			"buffer": 0,
			"byteLength": 27996,
			"byteOffset": 51804,
			"target": 34962
		},
		{
			"buffer": 0,
			"byteLength": 37328,
			"byteOffset": 79800,
			"target": 34962
		},
		{
			"buffer": 0,
			"byteLength": 18664,
			"byteOffset": 117128,
			"target": 34962
		},
		{
			"buffer": 0,
			"byteLength": 18664,
			"byteOffset": 135792,
			"target": 34962
		}
	],
	"images": [
		{
			"uri": "Sci-fi_Rocket_Top_Inst_BaseColor.png"
		},
		{
			"uri": "Sci-fi_Rocket_Top_Inst_Emissive.png"
		},
		{
			"uri": "Sci-fi_Rocket_Top_Inst_Normal.png"
		},
		{
			"uri": "T_Sci-fi_Rocket_Top_ARM.png"
		}
	],
	"materials": [
		{
			"name": "Sci-fi_Rocket_Top_Inst",
			"pbrMetallicRoughness":
			{
				"baseColorTexture":
				{
					"index": 0
				},
				"metallicRoughnessTexture":
				{
					"index": 1
				}
			},
			"normalTexture":
			{
				"index": 3
			},
			"occlusionTexture":
			{
				"index": 1
			},
			"emissiveTexture":
			{
				"index": 2
			},
			"emissiveFactor": [ 1, 1, 1 ],
			"extensions":
			{
				"KHR_materials_specular":
				{
					"specularFactor": 0.349999994
				},
				"KHR_materials_emissive_strength":
				{
					"emissiveStrength": 193.375
				}
			}
		}
	],
	"meshes": [
		{
			"name": "EditorSphere",
			"primitives": [
				{
					"attributes":
					{
						"POSITION": 1,
						"NORMAL": 2,
						"TANGENT": 3,
						"TEXCOORD_0": 4,
						"TEXCOORD_1": 5
					},
					"indices": 0,
					"material": 0
				}
			]
		}
	],
	"nodes": [
		{
			"mesh": 0
		}
	],
	"samplers": [
		{
			"minFilter": 9987,
			"magFilter": 9729
		}
	],
	"scenes": [
		{
			"nodes": [ 0 ]
		}
	],
	"textures": [
		{
			"name": "Sci-fi_Rocket_Top_Inst_BaseColor",
			"sampler": 0,
			"source": 0
		},
		{
			"name": "T_Sci-fi_Rocket_Top_ARM",
			"sampler": 0,
			"source": 3
		},
		{
			"name": "Sci-fi_Rocket_Top_Inst_Emissive",
			"sampler": 0,
			"source": 1
		},
		{
			"name": "Sci-fi_Rocket_Top_Inst_Normal",
			"sampler": 0,
			"source": 2
		}
	],
	"extensionsUsed": [
		"KHR_materials_specular",
		"KHR_materials_emissive_strength"
	]
}